ffmpeg version 2022-04-14-git-ea84eb2db1-essentials_build-www.gyan.dev Copyright (c) 2000-2022 the FFmpeg developers
  built with gcc 11.2.0 (Rev10, Built by MSYS2 project)
  configuration: --enable-gpl --enable-version3 --enable-static --disable-w32threads --disable-autodetect --enable-fontconfig --enable-iconv --enable-gnutls --enable-libxml2 --enable-gmp --enable-bzlib --enable-lzma --enable-zlib --enable-libsrt --enable-libssh --enable-libzmq --enable-avisynth --enable-sdl2 --enable-libwebp --enable-libx264 --enable-libx265 --enable-libxvid --enable-libaom --enable-libopenjpeg --enable-libvpx --enable-mediafoundation --enable-libass --enable-libfreetype --enable-libfribidi --enable-libvidstab --enable-libvmaf --enable-libzimg --enable-amf --enable-cuda-llvm --enable-cuvid --enable-ffnvcodec --enable-nvdec --enable-nvenc --enable-d3d11va --enable-dxva2 --enable-libmfx --enable-libgme --enable-libopenmpt --enable-libopencore-amrwb --enable-libmp3lame --enable-libtheora --enable-libvo-amrwbenc --enable-libgsm --enable-libopencore-amrnb --enable-libopus --enable-libspeex --enable-libvorbis --enable-librubberband
  libavutil      57. 24.101 / 57. 24.101
  libavcodec     59. 26.100 / 59. 26.100
  libavformat    59. 22.100 / 59. 22.100
  libavdevice    59.  6.100 / 59.  6.100
  libavfilter     8. 31.100 /  8. 31.100
  libswscale      6.  6.100 /  6.  6.100
  libswresample   4.  6.100 /  4.  6.100
  libpostproc    56.  5.100 / 56.  5.100
Splitting the commandline.
Reading option '-v' ... matched as option 'v' (set logging level) with argument 'debug'.
Reading option '-nostdin' ... matched as option 'stdin' (enable or disable interaction on standard input) with argument 0.
Reading option '-progress' ... matched as option 'progress' (write program-readable progress information) with argument 'C:/Users/pedro/AppData/Local/Temp/KritaFFmpegProgress.hwvpPL'.
Reading option '-r' ... matched as option 'r' (set frame rate (Hz value, fraction or abbreviation)) with argument '15'.
Reading option '-start_number' ... matched as AVOption 'start_number' with argument '44'.
Reading option '-i' ... matched as input url with argument 'C:/Users/pedro/DEV/jump-tales/characters/meriadne/frame%04d.png'.
Reading option '-vf' ... matched as option 'vf' (set video filters) with argument 'palettegen'.
Reading option '-y' ... matched as option 'y' (overwrite output files) with argument '1'.
Reading option 'C:/Users/pedro/DEV/jump-tales/characters/meriadne/palette.png' ... matched as output url.
Finished splitting the commandline.
Parsing a group of options: global .
Applying option v (set logging level) with argument debug.
Applying option nostdin (enable or disable interaction on standard input) with argument 0.
Applying option progress (write program-readable progress information) with argument C:/Users/pedro/AppData/Local/Temp/KritaFFmpegProgress.hwvpPL.
[file @ 000002c91c29c940] Setting default whitelist 'file,crypto,data'
Applying option y (overwrite output files) with argument 1.
Successfully parsed a group of options.
Parsing a group of options: input url C:/Users/pedro/DEV/jump-tales/characters/meriadne/frame%04d.png.
Applying option r (set frame rate (Hz value, fraction or abbreviation)) with argument 15.
Successfully parsed a group of options.
Opening an input file: C:/Users/pedro/DEV/jump-tales/characters/meriadne/frame%04d.png.
[image2 @ 000002c91c2dce40] Opening 'C:/Users/pedro/DEV/jump-tales/characters/meriadne/frame0044.png' for reading
[file @ 000002c91c2e1b80] Setting default whitelist 'file,crypto,data'
[AVIOContext @ 000002c91c2e9d40] Statistics: 5423 bytes read, 0 seeks
[image2 @ 000002c91c2dce40] Opening 'C:/Users/pedro/DEV/jump-tales/characters/meriadne/frame0045.png' for reading
[file @ 000002c91c2eb5c0] Setting default whitelist 'file,crypto,data'
[AVIOContext @ 000002c91c718100] Statistics: 5325 bytes read, 0 seeks
[image2 @ 000002c91c2dce40] Opening 'C:/Users/pedro/DEV/jump-tales/characters/meriadne/frame0046.png' for reading
[file @ 000002c91c7197c0] Setting default whitelist 'file,crypto,data'
[AVIOContext @ 000002c91c718100] Statistics: 5414 bytes read, 0 seeks
[image2 @ 000002c91c2dce40] Opening 'C:/Users/pedro/DEV/jump-tales/characters/meriadne/frame0047.png' for reading
[file @ 000002c91c7199c0] Setting default whitelist 'file,crypto,data'
[AVIOContext @ 000002c91c718100] Statistics: 5380 bytes read, 0 seeks
[image2 @ 000002c91c2dce40] Opening 'C:/Users/pedro/DEV/jump-tales/characters/meriadne/frame0048.png' for reading
[file @ 000002c91c719b80] Setting default whitelist 'file,crypto,data'
[AVIOContext @ 000002c91c718100] Statistics: 5335 bytes read, 0 seeks
[image2 @ 000002c91c2dce40] Opening 'C:/Users/pedro/DEV/jump-tales/characters/meriadne/frame0049.png' for reading
[file @ 000002c91c719d80] Setting default whitelist 'file,crypto,data'
[AVIOContext @ 000002c91c718100] Statistics: 5344 bytes read, 0 seeks
[image2 @ 000002c91c2dce40] Opening 'C:/Users/pedro/DEV/jump-tales/characters/meriadne/frame0050.png' for reading
[file @ 000002c91c36e1c0] Setting default whitelist 'file,crypto,data'
[AVIOContext @ 000002c91c718100] Statistics: 5382 bytes read, 0 seeks
[image2 @ 000002c91c2dce40] Opening 'C:/Users/pedro/DEV/jump-tales/characters/meriadne/frame0051.png' for reading
[file @ 000002c91c36e300] Setting default whitelist 'file,crypto,data'
[AVIOContext @ 000002c91c718100] Statistics: 5335 bytes read, 0 seeks
[image2 @ 000002c91c2dce40] Opening 'C:/Users/pedro/DEV/jump-tales/characters/meriadne/frame0052.png' for reading
[file @ 000002c91c36e300] Setting default whitelist 'file,crypto,data'
[AVIOContext @ 000002c91c718100] Statistics: 5423 bytes read, 0 seeks
Input #0, image2, from 'C:/Users/pedro/DEV/jump-tales/characters/meriadne/frame%04d.png':
  Duration: 00:00:00.36, start: 0.000000, bitrate: N/A
  Stream #0:0, 9, 1/25: Video: png, 1 reference frame, rgba(pc), 344x344 [SAR 11811:11811 DAR 1:1], 0/1, 25 fps, 25 tbr, 25 tbn
Successfully opened the file.
Parsing a group of options: output url C:/Users/pedro/DEV/jump-tales/characters/meriadne/palette.png.
Applying option vf (set video filters) with argument palettegen.
Successfully parsed a group of options.
Opening an output file: C:/Users/pedro/DEV/jump-tales/characters/meriadne/palette.png.
Successfully opened the file.
detected 4 logical cores
Stream mapping:
  Stream #0:0 -> #0:0 (png (native) -> png (native))
cur_dts is invalid st:0 (0) [init:0 i_done:0 finish:0] (this is harmless if it occurs once at the start per stream)
    Last message repeated 4 times
[graph 0 input from stream 0:0 @ 000002c91c719b00] Setting 'video_size' to value '344x344'
[graph 0 input from stream 0:0 @ 000002c91c719b00] Setting 'pix_fmt' to value '26'
[graph 0 input from stream 0:0 @ 000002c91c719b00] Setting 'time_base' to value '1/15'
[graph 0 input from stream 0:0 @ 000002c91c719b00] Setting 'pixel_aspect' to value '11811/11811'
[graph 0 input from stream 0:0 @ 000002c91c719b00] Setting 'frame_rate' to value '15/1'
[graph 0 input from stream 0:0 @ 000002c91c719b00] w:344 h:344 pixfmt:rgba tb:1/15 fr:15/1 sar:11811/11811
[format @ 000002c91c32c280] Setting 'pix_fmts' to value 'rgb24|rgba|rgb48be|rgba64be|pal8|gray|ya8|gray16be|ya16be|monob'
[auto_scale_0 @ 000002c91c32dd80] w:iw h:ih flags:'' interl:0
[Parsed_palettegen_0 @ 000002c91c8f9ec0] auto-inserting filter 'auto_scale_0' between the filter 'graph 0 input from stream 0:0' and the filter 'Parsed_palettegen_0'
[auto_scale_1 @ 000002c91c32e300] w:iw h:ih flags:'' interl:0
[format @ 000002c91c32c280] auto-inserting filter 'auto_scale_1' between the filter 'Parsed_palettegen_0' and the filter 'format'
[AVFilterGraph @ 000002c91c302640] query_formats: 4 queried, 3 merged, 2 already done, 0 delayed
[auto_scale_1 @ 000002c91c32e300] picking rgba out of 10 ref:bgra alpha:1
[swscaler @ 000002c91c32f640] [swscaler @ 000002c91c33fb00] Forcing full internal H chroma due to input having non subsampled chroma
[swscaler @ 000002c91c32f640] [swscaler @ 000002c91c3583c0] Forcing full internal H chroma due to input having non subsampled chroma
[swscaler @ 000002c91c32f640] [swscaler @ 000002c91c8fc240] Forcing full internal H chroma due to input having non subsampled chroma
[swscaler @ 000002c91c32f640] [swscaler @ 000002c91c992dc0] Forcing full internal H chroma due to input having non subsampled chroma
[swscaler @ 000002c91c32f640] [swscaler @ 000002c91c9b2dc0] Forcing full internal H chroma due to input having non subsampled chroma
[auto_scale_0 @ 000002c91c32dd80] w:344 h:344 fmt:rgba sar:11811/11811 -> w:344 h:344 fmt:bgra sar:1/1 flags:0x0
[swscaler @ 000002c91c9cac40] [swscaler @ 000002c91c9d8c00] Forcing full internal H chroma due to input having non subsampled chroma
[swscaler @ 000002c91c9cac40] [swscaler @ 000002c91c9ecc40] Forcing full internal H chroma due to input having non subsampled chroma
[swscaler @ 000002c91c9cac40] [swscaler @ 000002c91c9ffc80] Forcing full internal H chroma due to input having non subsampled chroma
[swscaler @ 000002c91c9cac40] [swscaler @ 000002c91ca12c80] Forcing full internal H chroma due to input having non subsampled chroma
[swscaler @ 000002c91c9cac40] [swscaler @ 000002c91ca25cc0] Forcing full internal H chroma due to input having non subsampled chroma
[auto_scale_1 @ 000002c91c32e300] w:16 h:16 fmt:bgra sar:1/1 -> w:16 h:16 fmt:rgba sar:1/1 flags:0x0
[swscaler @ 000002c91c32f640] [swscaler @ 000002c91c8f9fc0] Forcing full internal H chroma due to input having non subsampled chroma
[swscaler @ 000002c91c32f640] [swscaler @ 000002c91c9b8a80] Forcing full internal H chroma due to input having non subsampled chroma
[swscaler @ 000002c91c32f640] [swscaler @ 000002c91c35d8c0] Forcing full internal H chroma due to input having non subsampled chroma
[swscaler @ 000002c91c32f640] [swscaler @ 000002c91c345b40] Forcing full internal H chroma due to input having non subsampled chroma
[swscaler @ 000002c91c32f640] [swscaler @ 000002c91c996040] Forcing full internal H chroma due to input having non subsampled chroma
[auto_scale_0 @ 000002c91c32dd80] w:344 h:344 fmt:rgba sar:11811/11811 -> w:344 h:344 fmt:bgra sar:1/1 flags:0x0
[swscaler @ 000002c91c32f640] [swscaler @ 000002c91c8f9fc0] Forcing full internal H chroma due to input having non subsampled chroma
[swscaler @ 000002c91c32f640] [swscaler @ 000002c91c996040] Forcing full internal H chroma due to input having non subsampled chroma
[swscaler @ 000002c91c32f640] [swscaler @ 000002c91c9b2a40] Forcing full internal H chroma due to input having non subsampled chroma
[swscaler @ 000002c91c32f640] [swscaler @ 000002c91c357880] Forcing full internal H chroma due to input having non subsampled chroma
[swscaler @ 000002c91c32f640] [swscaler @ 000002c91c33fb00] Forcing full internal H chroma due to input having non subsampled chroma
[auto_scale_0 @ 000002c91c32dd80] w:344 h:344 fmt:rgba sar:11811/11811 -> w:344 h:344 fmt:bgra sar:1/1 flags:0x0
[swscaler @ 000002c91c32f640] [swscaler @ 000002c91c8f9fc0] Forcing full internal H chroma due to input having non subsampled chroma
[swscaler @ 000002c91c32f640] [swscaler @ 000002c91c996040] Forcing full internal H chroma due to input having non subsampled chroma
[swscaler @ 000002c91c32f640] [swscaler @ 000002c91c9b2a40] Forcing full internal H chroma due to input having non subsampled chroma
[swscaler @ 000002c91c32f640] [swscaler @ 000002c91c357880] Forcing full internal H chroma due to input having non subsampled chroma
[swscaler @ 000002c91c32f640] [swscaler @ 000002c91c33fb00] Forcing full internal H chroma due to input having non subsampled chroma
[auto_scale_0 @ 000002c91c32dd80] w:344 h:344 fmt:rgba sar:11811/11811 -> w:344 h:344 fmt:bgra sar:1/1 flags:0x0
cur_dts is invalid st:0 (0) [init:0 i_done:0 finish:0] (this is harmless if it occurs once at the start per stream)
    Last message repeated 8 times
[Parsed_palettegen_0 @ 000002c91c8f9ec0] 20(+1) colors generated out of 20 colors; ratio=1.000000
cur_dts is invalid st:0 (0) [init:0 i_done:0 finish:0] (this is harmless if it occurs once at the start per stream)
Output #0, image2, to 'C:/Users/pedro/DEV/jump-tales/characters/meriadne/palette.png':
  Metadata:
    encoder         : Lavf59.22.100
  Stream #0:0, 0, 1/15: Video: png, 1 reference frame, rgba(pc, gbr/unknown/unknown, progressive), 16x16 (0x0) [SAR 1:1 DAR 1:1], 0/1, q=2-31, 200 kb/s, 15 fps, 15 tbn
    Metadata:
      encoder         : Lavc59.26.100 png
Clipping frame in rate conversion by 0.000008
frame=    1 fps=0.0 q=0.0 size=N/A time=00:00:00.00 bitrate=N/A speed=   0x    cur_dts is invalid st:0 (0) [init:1 i_done:0 finish:0] (this is harmless if it occurs once at the start per stream)
[out_0_0 @ 000002c91c719940] EOF on sink link out_0_0:default.
No more output streams to write to, finishing.
[image2 @ 000002c91c71d780] Opening 'C:/Users/pedro/DEV/jump-tales/characters/meriadne/palette.png' for writing
[file @ 000002c91c9d83c0] Setting default whitelist 'file,crypto,data'
[AVIOContext @ 000002c91c32dbc0] Statistics: 191 bytes written, 0 seeks, 1 writeouts
frame=    1 fps=0.0 q=-0.0 Lsize=N/A time=00:00:00.06 bitrate=N/A speed=0.906x    
[AVIOContext @ 000002c91c2dcb80] Statistics: 347 bytes written, 0 seeks, 2 writeouts
video:0kB audio:0kB subtitle:0kB other streams:0kB global headers:0kB muxing overhead: unknown
Input file #0 (C:/Users/pedro/DEV/jump-tales/characters/meriadne/frame%04d.png):
  Input stream #0:0 (video): 9 packets read (48361 bytes); 9 frames decoded; 
  Total: 9 packets (48361 bytes) demuxed
Output file #0 (C:/Users/pedro/DEV/jump-tales/characters/meriadne/palette.png):
  Output stream #0:0 (video): 1 frames encoded; 1 packets muxed (191 bytes); 
  Total: 1 packets (191 bytes) muxed
9 frames successfully decoded, 0 decoding errors
